<svg xmlns:xlink="http://www.w3.org/1999/xlink" xmlns="http://www.w3.org/2000/svg" width="20" height="20" viewBox="0 0 20 20" fill="none" aria-hidden="true" class="application-header__close-icon">
<path d="M2.30035 0.414694C1.77965 -0.106005 0.935433 -0.106005 0.414734 0.414694C-0.105965 0.935393 -0.105965 1.77961 0.414734 2.30031L8.11438 9.99996L0.414814 17.6995C-0.105885 18.2202 -0.105885 19.0644 0.414814 19.5851C0.935513 20.1058 1.77973 20.1058 2.30043 19.5851L10 11.8856L17.6996 19.5851C18.2203 20.1058 19.0645 20.1058 19.5852 19.5851C20.1059 19.0644 20.1059 18.2202 19.5852 17.6995L11.8856 9.99996L19.5853 2.30031C20.106 1.77961 20.106 0.935393 19.5853 0.414694C19.0646 -0.106005 18.2203 -0.106005 17.6996 0.414694L10 8.11434L2.30035 0.414694Z" fill="#E03131"></path>
</svg>